<?xml version="1.0" encoding="UTF-8" standalone="no"?>
<svg
   width="400"
   height="318.75"
   version="1.1"
   id="svg1224"
   sodipodi:docname="bootstrap.svg"
   inkscape:version="1.1.1 (3bf5ae0d25, 2021-09-20)"
   inkscape:export-filename="D:\codeguild\portfolio\mattdwalsh.github.io\images\bootstrap.png"
   inkscape:export-xdpi="96"
   inkscape:export-ydpi="96"
   xmlns:inkscape="http://www.inkscape.org/namespaces/inkscape"
   xmlns:sodipodi="http://sodipodi.sourceforge.net/DTD/sodipodi-0.dtd"
   xmlns="http://www.w3.org/2000/svg"
   xmlns:svg="http://www.w3.org/2000/svg">
  <sodipodi:namedview
     id="namedview1226"
     pagecolor="#ffffff"
     bordercolor="#666666"
     borderopacity="1.0"
     inkscape:pageshadow="2"
     inkscape:pageopacity="0.0"
     inkscape:pagecheckerboard="0"
     showgrid="false"
     fit-margin-top="0"
     fit-margin-left="0"
     fit-margin-right="0"
     fit-margin-bottom="0"
     inkscape:zoom="2.0664062"
     inkscape:cx="233.49717"
     inkscape:cy="203.97732"
     inkscape:window-width="3440"
     inkscape:window-height="1387"
     inkscape:window-x="1912"
     inkscape:window-y="-8"
     inkscape:window-maximized="1"
     inkscape:current-layer="svg1224" />
  <defs
     id="defs1218">
    <linearGradient
       id="bs-logo-a"
       x1="76.079002"
       x2="523.47998"
       y1="10.798"
       y2="365.94501"
       gradientUnits="userSpaceOnUse"
       gradientTransform="scale(0.78125)">
      <stop
         stop-color="#9013fe"
         id="stop1193" />
      <stop
         offset="1"
         stop-color="#6610f2"
         id="stop1195" />
    </linearGradient>
    <linearGradient
       id="bs-logo-b"
       x1="193.508"
       x2="293.51401"
       y1="109.74"
       y2="278.87201"
       gradientUnits="userSpaceOnUse">
      <stop
         stop-color="#fff"
         id="stop1198" />
      <stop
         offset="1"
         stop-color="#f1e5fc"
         id="stop1200" />
    </linearGradient>
    <filter
       id="bs-logo-c"
       width="197"
       height="249"
       x="161.901"
       y="83.457001"
       color-interpolation-filters="sRGB"
       filterUnits="userSpaceOnUse">
      <feFlood
         flood-opacity="0"
         result="BackgroundImageFix"
         id="feFlood1203" />
      <feColorMatrix
         in="SourceAlpha"
         values="0 0 0 0 0 0 0 0 0 0 0 0 0 0 0 0 0 0 127 0"
         id="feColorMatrix1205" />
      <feOffset
         dy="4"
         id="feOffset1207" />
      <feGaussianBlur
         stdDeviation="8"
         id="feGaussianBlur1209" />
      <feColorMatrix
         values="0 0 0 0 0 0 0 0 0 0 0 0 0 0 0 0 0 0 0.15 0"
         id="feColorMatrix1211" />
      <feBlend
         in2="BackgroundImageFix"
         result="effect1_dropShadow"
         id="feBlend1213"
         mode="normal" />
      <feBlend
         in="SourceGraphic"
         in2="effect1_dropShadow"
         result="shape"
         id="feBlend1215"
         mode="normal" />
    </filter>
  </defs>
  <path
     fill="url(#bs-logo-a)"
     d="M 44.125781,41.65625 C 43.371094,19.984375 60.25625,0 83.079688,0 H 316.94922 c 22.82344,0 39.70859,19.984375 38.9539,41.65625 -0.725,20.817969 0.21641,47.785156 7.00313,69.77344 6.80859,22.05625 18.28984,35.99765 37.09375,37.78906 v 20.3125 c -18.80391,1.79141 -30.28516,15.73281 -37.09375,37.78906 -6.78672,21.98828 -7.72813,48.95547 -7.00313,69.77422 0.75469,21.67109 -16.13046,41.65547 -38.9539,41.65547 H 83.079688 C 60.25625,318.75 43.371094,298.76563 44.126562,277.09453 44.850781,256.27578 43.909375,229.30859 37.121875,207.32031 30.314062,185.26406 18.804687,171.32266 0,169.53125 v -20.3125 c 18.803906,-1.79141 30.314062,-15.73281 37.121875,-37.78906 6.7875,-21.988284 7.728906,-48.955471 7.003906,-69.77344 z"
     id="path1220"
     style="fill:url(#bs-logo-a);stroke-width:0.78125" />
  <path
     fill="url(#bs-logo-b)"
     filter="url(#bs-logo-c)"
     stroke="#ffffff"
     d="m 267.103,312.457 c 47.297,0 75.798,-23.158 75.798,-61.355 0,-28.873 -20.336,-49.776 -50.532,-53.085 v -1.203 c 22.185,-3.609 39.594,-24.211 39.594,-47.219 0,-32.783 -25.882,-54.138 -65.322,-54.138 h -88.74 v 217 z m -54.692,-189.48 h 45.911 c 24.958,0 39.131,11.128 39.131,31.279 0,21.505 -16.484,33.535 -46.372,33.535 h -38.67 z m 0,161.961 v -71.431 h 45.602 c 32.661,0 49.608,12.03 49.608,35.49 0,23.459 -16.484,35.941 -47.605,35.941 z"
     id="path1222"
     style="fill:url(#bs-logo-b)"
     transform="scale(0.78125)" />
</svg>
