<?xml version="1.0" encoding="UTF-8" standalone="no"?>
<?xml-stylesheet type="text/css" href="../css/style.css" ?>
<!-- Generator: Adobe Illustrator 12.0.1, SVG Export Plug-In . SVG Version: 6.00 Build 51448)  -->

<svg
   version="1.0"
   id="Layer_1"
   width="400"
   height="171.3932"
   viewBox="0 0 400 171.3932"
   overflow="visible"
   enable-background="new 0 0 504.09 215.994"
   xml:space="preserve"
   sodipodi:docname="django.svg"
   inkscape:export-filename="D:\codeguild\portfolio\mattdwalsh.github.io\images\django.png"
   inkscape:export-xdpi="96"
   inkscape:export-ydpi="96"
   inkscape:version="1.1.1 (3bf5ae0d25, 2021-09-20)"
   xmlns:inkscape="http://www.inkscape.org/namespaces/inkscape"
   xmlns:sodipodi="http://sodipodi.sourceforge.net/DTD/sodipodi-0.dtd"
   xmlns="http://www.w3.org/2000/svg"
   xmlns:svg="http://www.w3.org/2000/svg"><defs
   id="defs23" /><sodipodi:namedview
   id="namedview21"
   pagecolor="#ffffff"
   bordercolor="#666666"
   borderopacity="1.0"
   inkscape:pageshadow="2"
   inkscape:pageopacity="0.0"
   inkscape:pagecheckerboard="0"
   showgrid="false"
   fit-margin-top="0"
   fit-margin-left="0"
   fit-margin-right="0"
   fit-margin-bottom="0"
   inkscape:zoom="2.0988316"
   inkscape:cx="239.1807"
   inkscape:cy="146.03363"
   inkscape:window-width="3440"
   inkscape:window-height="1387"
   inkscape:window-x="1912"
   inkscape:window-y="-8"
   inkscape:window-maximized="1"
   inkscape:current-layer="Layer_1" />
<path
   fill="#092e20"
   d="m 400,149.17495 c 0,12.27082 -9.94743,22.21825 -22.21825,22.21825 H 22.218255 C 9.94743,171.3932 0,161.44577 0,149.17495 V 22.218255 C 0,9.94743 9.94743,0 22.218255,0 H 377.78175 C 390.05257,0 400,9.94743 400,22.218255 Z"
   id="path2"
   style="stroke-width:0.793509" />
<g
   id="g18"
   transform="scale(0.7935091)">
	<g
   id="g16">
		<path
   fill="#ffffff"
   d="m 86.945,33.919 h 23.872 v 110.496 c -12.246,2.325 -21.237,3.255 -31.002,3.255 -29.142,0 -44.333,-13.174 -44.333,-38.443 0,-24.336 16.122,-40.147 41.078,-40.147 3.875,0 6.82,0.311 10.386,1.239 v -36.4 z m 0,55.62 C 84.155,88.61 81.83,88.3 78.885,88.3 c -12.091,0 -19.067,7.441 -19.067,20.46 0,12.713 6.666,19.688 18.912,19.688 2.634,0 4.805,-0.155 8.215,-0.618 z"
   id="path4" />
		<path
   fill="#ffffff"
   d="m 148.793,70.783 v 55.341 c 0,19.065 -1.395,28.21 -5.58,36.117 -3.876,7.596 -8.992,12.399 -19.532,17.67 L 101.514,169.37 c 10.541,-4.96 15.656,-9.297 18.911,-15.966 3.411,-6.819 4.497,-14.727 4.497,-35.498 V 70.783 Z M 124.922,34.046 h 23.871 v 24.493 h -23.871 z"
   id="path6" />
		<path
   fill="#ffffff"
   d="m 163.212,76.209 c 10.542,-4.961 20.617,-7.13 31.623,-7.13 12.246,0 20.306,3.255 23.872,9.611 2.014,3.564 2.634,8.214 2.634,18.137 v 48.517 c -10.697,1.552 -24.182,2.636 -34.102,2.636 -19.996,0 -28.988,-6.977 -28.988,-22.476 0,-16.744 11.936,-24.493 41.234,-26.975 v -5.271 c 0,-4.339 -2.17,-5.888 -8.216,-5.888 -8.835,0 -18.756,2.479 -28.058,7.285 V 76.209 Z m 37.358,37.978 c -15.812,1.552 -20.927,4.031 -20.927,10.231 0,4.65 2.946,6.821 9.456,6.821 3.566,0 6.82,-0.311 11.471,-1.084 z"
   id="path8" />
		<path
   fill="#ffffff"
   d="m 232.968,74.505 c 14.105,-3.722 25.731,-5.426 37.512,-5.426 12.246,0 21.082,2.788 26.354,8.216 4.96,5.113 6.509,10.693 6.509,22.632 v 46.813 h -23.871 v -45.884 c 0,-9.145 -3.1,-12.557 -11.625,-12.557 -3.255,0 -6.2,0.311 -11.007,1.706 v 56.734 H 232.969 V 74.505 Z"
   id="path10" />
		<path
   fill="#ffffff"
   d="m 312.623,159.761 c 8.372,4.339 16.742,6.354 25.577,6.354 15.655,0 22.321,-6.354 22.321,-21.546 0,-0.154 0,-0.31 0,-0.467 -4.65,2.326 -9.301,3.257 -15.5,3.257 -20.927,0 -34.26,-13.797 -34.26,-35.652 0,-27.128 19.688,-42.473 54.564,-42.473 10.232,0 19.688,1.084 31.159,3.407 l -8.174,17.222 c -6.356,-1.241 -0.509,-0.167 -5.312,-0.632 v 2.48 l 0.309,10.074 0.154,13.022 c 0.155,3.253 0.155,6.51 0.311,9.764 0,2.945 0,4.342 0,6.512 0,20.462 -1.705,30.073 -6.82,37.977 -7.441,11.627 -20.307,17.362 -38.598,17.362 -9.301,0 -17.36,-1.396 -25.732,-4.651 v -22.01 z m 47.434,-71.306 c -0.31,0 -0.619,0 -0.774,0 h -1.706 c -4.649,-0.155 -10.074,1.084 -13.796,3.409 -5.734,3.257 -8.681,9.146 -8.681,17.518 0,11.937 5.892,18.756 16.432,18.756 3.255,0 5.891,-0.62 8.99,-1.55 v -1.705 -6.51 c 0,-2.79 -0.154,-5.892 -0.154,-9.146 l -0.154,-11.006 -0.156,-7.905 v -1.861 z"
   id="path12" />
		<path
   fill="#ffffff"
   d="m 433.543,68.77 c 23.871,0 38.443,15.037 38.443,39.371 0,24.957 -15.19,40.613 -39.373,40.613 -23.873,0 -38.599,-15.036 -38.599,-39.216 10e-4,-25.114 15.193,-40.768 39.529,-40.768 z m -0.467,60.763 c 9.147,0 14.573,-7.596 14.573,-20.773 0,-13.019 -5.271,-20.771 -14.415,-20.771 -9.457,0 -14.884,7.598 -14.884,20.771 10e-4,13.178 5.427,20.773 14.726,20.773 z"
   id="path14" />
	</g>
</g>
</svg>
