<?xml version="1.0" encoding="UTF-8" standalone="no"?>
<svg
   viewBox="0 0 400 564.49835"
   version="1.1"
   id="svg14"
   sodipodi:docname="html5.svg"
   width="400"
   height="564.49835"
   inkscape:version="1.1.1 (3bf5ae0d25, 2021-09-20)"
   xmlns:inkscape="http://www.inkscape.org/namespaces/inkscape"
   xmlns:sodipodi="http://sodipodi.sourceforge.net/DTD/sodipodi-0.dtd"
   xmlns="http://www.w3.org/2000/svg"
   xmlns:svg="http://www.w3.org/2000/svg"
   xmlns:rdf="http://www.w3.org/1999/02/22-rdf-syntax-ns#"
   xmlns:cc="http://creativecommons.org/ns#"
   xmlns:dc="http://purl.org/dc/elements/1.1/">
  <defs
     id="defs18" />
  <sodipodi:namedview
     id="namedview16"
     pagecolor="#ffffff"
     bordercolor="#666666"
     borderopacity="1.0"
     inkscape:pageshadow="2"
     inkscape:pageopacity="0.0"
     inkscape:pagecheckerboard="0"
     showgrid="false"
     fit-margin-top="0"
     fit-margin-left="0"
     fit-margin-right="0"
     fit-margin-bottom="0"
     inkscape:zoom="1.7050781"
     inkscape:cx="165.9748"
     inkscape:cy="256"
     inkscape:window-width="3440"
     inkscape:window-height="1387"
     inkscape:window-x="1912"
     inkscape:window-y="-8"
     inkscape:window-maximized="1"
     inkscape:current-layer="svg14" />
  <title
     id="title2">HTML5 Logo</title>
  <path
     d="M 37.26571,0 H 62.62404 V 25.137817 H 85.99779 V 0 h 25.35833 V 76.074972 H 85.99779 V 50.716648 H 62.84454 V 76.074972 H 37.26571 M 144.87321,25.358324 H 122.49173 V 0 h 70.23153 V 25.358324 H 170.23153 V 76.074972 H 144.87321 M 203.85888,0 h 26.57111 L 246.74752,26.791621 263.06505,0 h 26.57111 V 76.074972 H 264.27784 V 38.368247 L 246.52701,65.711136 228.77619,38.368247 V 76.074972 H 203.85888 M 302.20507,0 h 25.35833 v 50.937155 h 35.94266 v 25.137817 h -61.30099"
     id="path4"
     style="stroke-width:1.10254" />
  <path
     fill="#e44d26"
     d="M 36.38368,519.29438 0,110.9151 h 400 l -36.38368,408.15877 -163.94708,45.42448"
     id="path6"
     style="stroke-width:1.10254" />
  <path
     fill="#f16529"
     d="M 200,529.76847 V 144.43219 H 363.50606 L 332.3043,492.83352"
     id="path8"
     style="stroke-width:1.10254" />
  <path
     fill="#ebebeb"
     d="M 74.31092,194.37707 H 200 v 50.05512 h -70.7828 l 4.63065,51.26792 H 200 v 49.94487 H 87.98236 m 2.20507,25.13782 h 50.27564 l 3.52811,40.02205 L 200,425.79934 v 52.2602 L 97.24366,449.39361"
     id="path10"
     style="stroke-width:1.10254" />
  <path
     fill="#ffffff"
     d="M 325.24807,194.37707 H 199.77949 v 50.05512 h 120.83793 m -4.5204,51.26792 H 199.77949 v 50.05513 h 61.74201 l -5.84344,65.04961 -55.89857,14.99449 v 52.03969 l 102.53584,-28.44542"
     id="path12"
     style="stroke-width:1.10254" />
  <metadata
     id="metadata835">
    <rdf:RDF>
      <cc:Work
         rdf:about="">
        <dc:title>HTML5 Logo</dc:title>
      </cc:Work>
    </rdf:RDF>
  </metadata>
</svg>
