<?xml version="1.0" encoding="UTF-8" standalone="no"?>
<!-- Generator: Adobe Illustrator 25.0.1, SVG Export Plug-In . SVG Version: 6.00 Build 0)  -->

<svg
   version="1.1"
   id="Layer_1"
   x="0px"
   y="0px"
   viewBox="0 0 640 640"
   style="enable-background:new 0 0 640 640;"
   xml:space="preserve"
   sodipodi:docname="threejs.svg"
   inkscape:export-filename="D:\codeguild\portfolio\mattdwalsh.github.io\images\threejs.png"
   inkscape:export-xdpi="62.889999"
   inkscape:export-ydpi="62.889999"
   inkscape:version="1.1.1 (3bf5ae0d25, 2021-09-20)"
   xmlns:inkscape="http://www.inkscape.org/namespaces/inkscape"
   xmlns:sodipodi="http://sodipodi.sourceforge.net/DTD/sodipodi-0.dtd"
   xmlns="http://www.w3.org/2000/svg"
   xmlns:svg="http://www.w3.org/2000/svg"><defs
   id="defs69" /><sodipodi:namedview
   id="namedview67"
   pagecolor="#ffffff"
   bordercolor="#666666"
   borderopacity="1.0"
   inkscape:pageshadow="2"
   inkscape:pageopacity="0.0"
   inkscape:pagecheckerboard="0"
   showgrid="false"
   inkscape:zoom="1.3640625"
   inkscape:cx="285.5441"
   inkscape:cy="320"
   inkscape:window-width="3440"
   inkscape:window-height="1387"
   inkscape:window-x="1912"
   inkscape:window-y="-8"
   inkscape:window-maximized="1"
   inkscape:current-layer="Layer_1" />
<style
   type="text/css"
   id="style2">
	.st0{fill:#FFFFFF;}
	.st1{fill:#FFFFFF;stroke:#000000;stroke-width:7;stroke-miterlimit:10;}
	.st2{fill:none;stroke:#000000;stroke-width:7;stroke-miterlimit:10;}
</style>

<g
   id="g64">
	<line
   class="st1"
   x1="245.8"
   y1="362.4"
   x2="283.7"
   y2="513.3"
   id="line6" />
	<line
   class="st1"
   x1="395.5"
   y1="404.8"
   x2="245.8"
   y2="362.4"
   id="line8" />
	<line
   class="st1"
   x1="283.7"
   y1="513.3"
   x2="395.5"
   y2="404.8"
   id="line10" />
	<path
   class="st1"
   d="M134,470.9"
   id="path12" />
	<line
   class="st1"
   x1="283.7"
   y1="513.3"
   x2="134"
   y2="470.9"
   id="line14" />
	<path
   class="st1"
   d="M134,470.9"
   id="path16" />
	<polyline
   class="st2"
   points="134,470.9 171.9,621.9 283.7,513.3  "
   id="polyline18" />
	<line
   class="st1"
   x1="134"
   y1="470.9"
   x2="245.8"
   y2="362.4"
   id="line20" />
	<line
   class="st1"
   x1="245.8"
   y1="362.4"
   x2="357.7"
   y2="253.8"
   id="line22" />
	<line
   class="st1"
   x1="357.7"
   y1="253.8"
   x2="469.5"
   y2="145.3"
   id="line24" />
	<line
   class="st1"
   x1="319.8"
   y1="102.9"
   x2="357.7"
   y2="253.8"
   id="line26" />
	<line
   class="st1"
   x1="357.7"
   y1="253.8"
   x2="207.9"
   y2="211.5"
   id="line28" />
	<line
   class="st1"
   x1="207.9"
   y1="211.5"
   x2="245.8"
   y2="362.4"
   id="line30" />
	<line
   class="st1"
   x1="245.8"
   y1="362.4"
   x2="96.1"
   y2="320"
   id="line32" />
	<line
   class="st1"
   x1="96.1"
   y1="320"
   x2="134"
   y2="470.9"
   id="line34" />
	<line
   class="st1"
   x1="58.2"
   y1="169.1"
   x2="96.1"
   y2="320"
   id="line36" />
	<line
   class="st1"
   x1="207.9"
   y1="211.5"
   x2="58.2"
   y2="169.1"
   id="line38" />
	<line
   class="st1"
   x1="96.1"
   y1="320"
   x2="207.9"
   y2="211.5"
   id="line40" />
	<line
   class="st1"
   x1="207.9"
   y1="211.4"
   x2="319.8"
   y2="102.9"
   id="line42" />
	<line
   class="st1"
   x1="319.8"
   y1="102.9"
   x2="170"
   y2="60.5"
   id="line44" />
	<line
   class="st1"
   x1="170"
   y1="60.5"
   x2="207.9"
   y2="211.4"
   id="line46" />
	<polyline
   class="st2"
   points="58.2,169.1 20.3,18.1 170,60.5  "
   id="polyline48" />
	<line
   class="st1"
   x1="58.2"
   y1="169.1"
   x2="170"
   y2="60.5"
   id="line50" />
	<polyline
   class="st2"
   points="507.4,296.2 619.2,187.7 469.5,145.3  "
   id="polyline52" />
	<line
   class="st1"
   x1="469.5"
   y1="145.3"
   x2="507.4"
   y2="296.2"
   id="line54" />
	<line
   class="st1"
   x1="507.4"
   y1="296.2"
   x2="357.7"
   y2="253.8"
   id="line56" />
	<line
   class="st1"
   x1="357.7"
   y1="253.8"
   x2="395.5"
   y2="404.8"
   id="line58" />
	<line
   class="st1"
   x1="395.5"
   y1="404.8"
   x2="507.4"
   y2="296.2"
   id="line60" />
	<line
   class="st1"
   x1="469.5"
   y1="145.3"
   x2="319.8"
   y2="102.9"
   id="line62" />
</g>
</svg>
